<svg xmlns="http://www.w3.org/2000/svg" width="384" height="160" viewBox="0 0 384 160" preserveAspectRatio="xMaxYMid meet"><rect x="196" y="28" width="136" height="108" rx="14" fill="#2a9d88" fill-opacity="0.12" stroke="#2a9d88" stroke-width="3"></rect><rect x="196" y="28" width="136" height="24" rx="12" fill="#2a9d88"></rect><g fill="#2a9d88" fill-opacity="0.4"><rect x="210" y="64" width="16" height="14" rx="3"></rect><rect x="234" y="64" width="16" height="14" rx="3"></rect><rect x="258" y="64" width="16" height="14" rx="3"></rect><rect x="282" y="64" width="16" height="14" rx="3"></rect><rect x="306" y="64" width="16" height="14" rx="3"></rect><rect x="210" y="86" width="16" height="14" rx="3"></rect><rect x="234" y="86" width="16" height="14" rx="3"></rect><rect x="258" y="86" width="16" height="14" rx="3"></rect><rect x="282" y="86" width="16" height="14" rx="3"></rect></g><circle cx="340" cy="120" r="24" fill="#e8a33a"></circle><path d="M340 108v24M346 113c0-2-2.5-3-6-3s-6 1.2-6 3.4c0 4.6 12 2.4 12 7.2 0 2.2-2.5 3.4-6 3.4s-6-1.2-6-3.4" fill="none" stroke="#14171c" stroke-width="2.6" stroke-linecap="round"></path></svg>
